<!-- /public/logo-shuffle-spark.svg -->
<svg width="256" height="256" viewBox="0 0 256 256" fill="none" xmlns="http://www.w3.org/2000/svg">
  <!-- shuffle arrows -->
  <path d="M40 176h36c22 0 34-9 47-22l30-30c13-13 25-22 47-22h16" stroke="currentColor" stroke-width="20" stroke-linecap="round" stroke-linejoin="round"/>
  <path d="M40 96h36c22 0 34 9 47 22l6 6" stroke="currentColor" stroke-width="20" stroke-linecap="round" stroke-linejoin="round" opacity="0.75"/>
  <!-- arrowheads -->
  <path d="M200 86l-28-20v40l28-20Z" fill="currentColor"/>
  <path d="M200 186l-28-20v40l28-20Z" fill="currentColor"/>
  <!-- spark -->
  <g transform="translate(204,56) scale(0.9)">
    <path d="M12 0L9 9L0 12L9 15L12 24L15 15L24 12L15 9L12 0Z" fill="currentColor"/>
  </g>
</svg>
